<svg width="20" height="20" viewBox="0 0 20 20" fill="none" xmlns="http://www.w3.org/2000/svg">
<mask id="mask0_7_226" style="mask-type:alpha" maskUnits="userSpaceOnUse" x="0" y="0" width="20" height="20">
<rect width="20" height="20" fill="#D9D9D9"/>
</mask>
<g mask="url(#mask0_7_226)">
<path d="M5.06249 18.5C4.53471 18.5 4.08693 18.3161 3.71916 17.9483C3.35082 17.58 3.16666 17.1319 3.16666 16.6042V3.39583C3.16666 2.86806 3.35082 2.42 3.71916 2.05167C4.08693 1.68389 4.53471 1.5 5.06249 1.5H11.7292L16.8333 6.60417V16.6042C16.8333 17.1319 16.6494 17.58 16.2817 17.9483C15.9133 18.3161 15.4653 18.5 14.9375 18.5H5.06249ZM10.7708 7.5625V3.39583H5.06249V16.6042H14.9375V7.5625H10.7708Z" fill="#604D9E"/>
</g>
</svg>
