<svg width="20" height="20" viewBox="0 0 20 20" fill="none" xmlns="http://www.w3.org/2000/svg">
<mask id="mask0_7_231" style="mask-type:alpha" maskUnits="userSpaceOnUse" x="0" y="0" width="20" height="20">
<rect width="20" height="20" fill="#D9D9D9"/>
</mask>
<g mask="url(#mask0_7_231)">
<path d="M7.56251 18.5L7.22918 15.7917C7.06251 15.7222 6.91307 15.6458 6.78084 15.5625C6.64918 15.4792 6.5139 15.3889 6.37501 15.2917L3.85418 16.375L1.39584 12.1458L3.58334 10.4792V9.52083L1.39584 7.85417L3.85418 3.64583L6.39584 4.70833C6.52084 4.61111 6.65279 4.52083 6.79168 4.4375C6.93057 4.35417 7.0764 4.28472 7.22918 4.22917L7.56251 1.5H12.4375L12.7708 4.22917C12.9375 4.28472 13.087 4.35417 13.2192 4.4375C13.3508 4.52083 13.4861 4.61111 13.625 4.70833L16.1458 3.64583L18.6042 7.85417L16.3958 9.52083C16.4097 9.60417 16.4167 9.68389 16.4167 9.76V10.2392C16.4167 10.3158 16.4028 10.3958 16.375 10.4792L18.5833 12.1458L16.125 16.375L13.6042 15.2917C13.4792 15.3889 13.3472 15.4792 13.2083 15.5625C13.0695 15.6458 12.9236 15.7222 12.7708 15.7917L12.4375 18.5H7.56251ZM10.0208 12.9167C10.8264 12.9167 11.5139 12.6319 12.0833 12.0625C12.6528 11.4931 12.9375 10.8056 12.9375 10C12.9375 9.19444 12.6528 8.50694 12.0833 7.9375C11.5139 7.36806 10.8264 7.08333 10.0208 7.08333C9.21529 7.08333 8.52779 7.36806 7.95834 7.9375C7.3889 8.50694 7.10418 9.19444 7.10418 10C7.10418 10.8056 7.3889 11.4931 7.95834 12.0625C8.52779 12.6319 9.21529 12.9167 10.0208 12.9167ZM10.0208 11.25C9.67362 11.25 9.37862 11.1283 9.13584 10.885C8.89251 10.6422 8.77084 10.3472 8.77084 10C8.77084 9.65278 8.89251 9.35778 9.13584 9.115C9.37862 8.87167 9.67362 8.75 10.0208 8.75C10.3681 8.75 10.6633 8.87167 10.9067 9.115C11.1495 9.35778 11.2708 9.65278 11.2708 10C11.2708 10.3472 11.1495 10.6422 10.9067 10.885C10.6633 11.1283 10.3681 11.25 10.0208 11.25ZM9.22918 16.6042H10.75L11.0417 14.4167C11.4861 14.3056 11.8958 14.1389 12.2708 13.9167C12.6458 13.6944 12.9861 13.4236 13.2917 13.1042L15.3542 13.9583L16.1042 12.6458L14.3125 11.2917C14.382 11.0972 14.4342 10.8889 14.4692 10.6667C14.5036 10.4444 14.5208 10.2222 14.5208 10C14.5208 9.77778 14.5036 9.55556 14.4692 9.33333C14.4342 9.11111 14.382 8.90278 14.3125 8.70833L16.1042 7.35417L15.3542 6.04167L13.2917 6.91667C12.9861 6.58333 12.6458 6.30556 12.2708 6.08333C11.8958 5.86111 11.4861 5.69444 11.0417 5.58333L10.7708 3.39583H9.22918L8.95834 5.58333C8.5139 5.69444 8.10418 5.86111 7.72918 6.08333C7.35418 6.30556 7.00695 6.57639 6.68751 6.89583L4.64584 6.04167L3.89584 7.35417L5.66668 8.6875C5.59723 8.89583 5.54529 9.10778 5.51084 9.32333C5.47584 9.53833 5.45834 9.76389 5.45834 10C5.45834 10.2222 5.47584 10.4408 5.51084 10.6558C5.54529 10.8714 5.59723 11.0903 5.66668 11.3125L3.89584 12.6458L4.64584 13.9583L6.68751 13.1042C7.00695 13.4236 7.35418 13.6944 7.72918 13.9167C8.10418 14.1389 8.5139 14.3056 8.95834 14.4167L9.22918 16.6042Z" fill="#604D9E"/>
</g>
</svg>
