<svg width="20" height="20" viewBox="0 0 20 20" fill="none" xmlns="http://www.w3.org/2000/svg">
<mask id="mask0_7_209" style="mask-type:alpha" maskUnits="userSpaceOnUse" x="0" y="0" width="20" height="20">
<rect width="20" height="20" fill="#D9D9D9"/>
</mask>
<g mask="url(#mask0_7_209)">
<path d="M3.39583 17.6875C2.86806 17.6875 2.42 17.5033 2.05167 17.135C1.68389 16.7672 1.5 16.3194 1.5 15.7916V6.74996C1.5 6.22218 1.68389 5.77413 2.05167 5.40579C2.42 5.03802 2.86806 4.85413 3.39583 4.85413H6.52083V3.24996C6.52083 2.73607 6.705 2.29163 7.07333 1.91663C7.44111 1.54163 7.88889 1.35413 8.41667 1.35413H11.5833C12.1111 1.35413 12.5592 1.54163 12.9275 1.91663C13.2953 2.29163 13.4792 2.73607 13.4792 3.24996V4.85413H16.6042C17.1319 4.85413 17.58 5.03802 17.9483 5.40579C18.3161 5.77413 18.5 6.22218 18.5 6.74996V15.7916C18.5 16.3194 18.3161 16.7672 17.9483 17.135C17.58 17.5033 17.1319 17.6875 16.6042 17.6875H3.39583ZM3.39583 15.7916H16.6042V6.74996H3.39583V15.7916ZM8.41667 4.85413H11.5833V3.24996H8.41667V4.85413Z" fill="#604D9E"/>
</g>
</svg>
